<mxfile host="app.diagrams.net" modified="2022-12-12T03:49:34.598Z" agent="5.0 (Windows NT 10.0; Win64; x64) AppleWebKit/537.36 (KHTML, like Gecko) Chrome/108.0.0.0 Safari/537.36" etag="wuxbHxDWccHyz1MTSnol" version="20.6.0" type="github">
  <diagram name="Page-1" id="efa7a0a1-bf9b-a30e-e6df-94a7791c09e9">
    <mxGraphModel dx="1038" dy="615" grid="1" gridSize="10" guides="1" tooltips="1" connect="1" arrows="1" fold="1" page="1" pageScale="1" pageWidth="826" pageHeight="1169" background="none" math="0" shadow="0">
      <root>
        <mxCell id="0" />
        <mxCell id="1" parent="0" />
        <mxCell id="GjRLE1qKXkt9nsyT0Dci-114" value="&lt;p style=&quot;margin: 4px 0px 0px; text-align: center;&quot;&gt;&lt;b&gt;&lt;u&gt;AttrSystem&lt;/u&gt;&lt;/b&gt;&lt;br&gt;&lt;/p&gt;&lt;p style=&quot;margin: 4px 0px 0px; text-align: center;&quot;&gt;&lt;b&gt;&lt;u&gt;属性系统&lt;/u&gt;&lt;/b&gt;&lt;/p&gt;&lt;hr&gt;&lt;p style=&quot;margin: 0px; margin-left: 8px;&quot;&gt;companyId&amp;nbsp; &amp;nbsp;公司名称&lt;/p&gt;&lt;p style=&quot;margin: 0px; margin-left: 8px;&quot;&gt;code&amp;nbsp; &amp;nbsp; &amp;nbsp; &amp;nbsp; &amp;nbsp; &amp;nbsp; 编码&lt;br&gt;&lt;/p&gt;&lt;p style=&quot;margin: 0px; margin-left: 8px;&quot;&gt;name&amp;nbsp; &amp;nbsp; &amp;nbsp; &amp;nbsp; &amp;nbsp; &amp;nbsp;名称&lt;/p&gt;" style="verticalAlign=top;align=left;overflow=fill;fontSize=12;fontFamily=Helvetica;html=1;strokeColor=#003366;shadow=1;fillColor=#D4E1F5;fontColor=#003366" vertex="1" parent="1">
          <mxGeometry x="180" y="115" width="160" height="100" as="geometry" />
        </mxCell>
        <mxCell id="GjRLE1qKXkt9nsyT0Dci-115" value="&lt;p style=&quot;margin: 4px 0px 0px; text-align: center;&quot;&gt;&lt;b&gt;&lt;u&gt;AttrClass&lt;/u&gt;&lt;/b&gt;&lt;br&gt;&lt;/p&gt;&lt;p style=&quot;margin: 4px 0px 0px; text-align: center;&quot;&gt;&lt;b&gt;&lt;u&gt;属性分类&lt;/u&gt;&lt;/b&gt;&lt;br&gt;&lt;/p&gt;&lt;hr&gt;&lt;p style=&quot;margin: 0px; margin-left: 8px;&quot;&gt;systemId&amp;nbsp; &amp;nbsp; &amp;nbsp;属性系统id&lt;/p&gt;&lt;p style=&quot;margin: 0px; margin-left: 8px;&quot;&gt;code&amp;nbsp; &amp;nbsp; &amp;nbsp; &amp;nbsp; &amp;nbsp; &amp;nbsp; 编码&lt;br&gt;&lt;/p&gt;&lt;p style=&quot;margin: 0px; margin-left: 8px;&quot;&gt;name&amp;nbsp; &amp;nbsp; &amp;nbsp; &amp;nbsp; &amp;nbsp; &amp;nbsp;名称&lt;/p&gt;" style="verticalAlign=top;align=left;overflow=fill;fontSize=12;fontFamily=Helvetica;html=1;strokeColor=#003366;shadow=1;fillColor=#D4E1F5;fontColor=#003366" vertex="1" parent="1">
          <mxGeometry x="470" y="105" width="160" height="100" as="geometry" />
        </mxCell>
        <mxCell id="GjRLE1qKXkt9nsyT0Dci-116" value="Use" style="endArrow=open;endSize=12;dashed=1;exitX=0;exitY=0.5;exitDx=0;exitDy=0;entryX=1.023;entryY=0.404;entryDx=0;entryDy=0;entryPerimeter=0;" edge="1" parent="1" source="GjRLE1qKXkt9nsyT0Dci-115" target="GjRLE1qKXkt9nsyT0Dci-114">
          <mxGeometry x="278.92" y="83.3599999999999" as="geometry">
            <mxPoint x="440.0000000000004" y="185.00000000000045" as="sourcePoint" />
            <mxPoint x="318.92" y="185.00000000000045" as="targetPoint" />
          </mxGeometry>
        </mxCell>
        <mxCell id="GjRLE1qKXkt9nsyT0Dci-118" style="edgeStyle=orthogonalEdgeStyle;rounded=0;orthogonalLoop=1;jettySize=auto;html=1;entryX=0.5;entryY=1;entryDx=0;entryDy=0;startArrow=diamondThin;startFill=0;endArrow=diamondThin;endFill=0;jumpSize=6;targetPerimeterSpacing=0;sourcePerimeterSpacing=0;startSize=14;endSize=14;" edge="1" parent="1" source="GjRLE1qKXkt9nsyT0Dci-117" target="GjRLE1qKXkt9nsyT0Dci-115">
          <mxGeometry relative="1" as="geometry" />
        </mxCell>
        <mxCell id="GjRLE1qKXkt9nsyT0Dci-119" value="n" style="edgeLabel;html=1;align=center;verticalAlign=middle;resizable=0;points=[];" vertex="1" connectable="0" parent="GjRLE1qKXkt9nsyT0Dci-118">
          <mxGeometry x="0.7486" y="-2" relative="1" as="geometry">
            <mxPoint x="3" y="4" as="offset" />
          </mxGeometry>
        </mxCell>
        <mxCell id="GjRLE1qKXkt9nsyT0Dci-120" value="n" style="edgeLabel;html=1;align=center;verticalAlign=middle;resizable=0;points=[];" vertex="1" connectable="0" parent="GjRLE1qKXkt9nsyT0Dci-118">
          <mxGeometry x="-0.6657" y="-1" relative="1" as="geometry">
            <mxPoint x="2" y="-8" as="offset" />
          </mxGeometry>
        </mxCell>
        <mxCell id="GjRLE1qKXkt9nsyT0Dci-121" value="category_attr_class" style="edgeLabel;html=1;align=center;verticalAlign=middle;resizable=0;points=[];" vertex="1" connectable="0" parent="GjRLE1qKXkt9nsyT0Dci-118">
          <mxGeometry x="0.3343" y="-3" relative="1" as="geometry">
            <mxPoint y="13" as="offset" />
          </mxGeometry>
        </mxCell>
        <mxCell id="GjRLE1qKXkt9nsyT0Dci-117" value="&lt;p style=&quot;margin: 4px 0px 0px; text-align: center;&quot;&gt;&lt;b&gt;&lt;u&gt;Category&lt;/u&gt;&lt;/b&gt;&lt;/p&gt;&lt;p style=&quot;margin: 4px 0px 0px; text-align: center;&quot;&gt;&lt;b&gt;&lt;u&gt;分类&lt;/u&gt;&lt;/b&gt;&lt;br&gt;&lt;/p&gt;&lt;hr&gt;&lt;p style=&quot;margin: 0px; margin-left: 8px;&quot;&gt;&lt;span style=&quot;background-color: initial;&quot;&gt;code&amp;nbsp; &amp;nbsp; &amp;nbsp; &amp;nbsp; &amp;nbsp; &amp;nbsp; 编码&lt;/span&gt;&lt;br&gt;&lt;/p&gt;&lt;p style=&quot;margin: 0px; margin-left: 8px;&quot;&gt;name&amp;nbsp; &amp;nbsp; &amp;nbsp; &amp;nbsp; &amp;nbsp; &amp;nbsp;名称&lt;/p&gt;" style="verticalAlign=top;align=left;overflow=fill;fontSize=12;fontFamily=Helvetica;html=1;strokeColor=#003366;shadow=1;fillColor=#D4E1F5;fontColor=#003366" vertex="1" parent="1">
          <mxGeometry x="470" y="305" width="160" height="85" as="geometry" />
        </mxCell>
        <mxCell id="GjRLE1qKXkt9nsyT0Dci-122" value="&lt;p style=&quot;margin: 4px 0px 0px; text-align: center;&quot;&gt;&lt;b&gt;&lt;u&gt;AttrAssign&lt;/u&gt;&lt;/b&gt;&lt;br&gt;&lt;/p&gt;&lt;p style=&quot;margin: 4px 0px 0px; text-align: center;&quot;&gt;&lt;b&gt;&lt;u&gt;属性分配&lt;/u&gt;&lt;/b&gt;&lt;br&gt;&lt;/p&gt;&lt;hr&gt;&lt;p style=&quot;margin: 0px; margin-left: 8px;&quot;&gt;systemId&amp;nbsp; &amp;nbsp; &amp;nbsp;属性系统id&lt;/p&gt;&lt;p style=&quot;margin: 0px; margin-left: 8px;&quot;&gt;attrClassId&amp;nbsp; &amp;nbsp;属性分类id&lt;br&gt;&lt;/p&gt;&lt;p style=&quot;margin: 0px; margin-left: 8px;&quot;&gt;attributeId&amp;nbsp; &amp;nbsp; &amp;nbsp;属性项id&lt;/p&gt;&lt;p style=&quot;margin: 0px; margin-left: 8px;&quot;&gt;orderSort&amp;nbsp; &amp;nbsp; &amp;nbsp;排序&lt;br&gt;&lt;/p&gt;&lt;p style=&quot;margin: 0px; margin-left: 8px;&quot;&gt;isSaleAttr&amp;nbsp; &amp;nbsp; &amp;nbsp;是否销售属性(区分关键属性、销售属性)&lt;br&gt;&lt;/p&gt;&lt;p style=&quot;margin: 0px; margin-left: 8px;&quot;&gt;type&amp;nbsp; &amp;nbsp; &amp;nbsp; &amp;nbsp; &amp;nbsp; &amp;nbsp; &amp;nbsp;类型（分类、商品、Offer）&lt;br&gt;&lt;/p&gt;&lt;p style=&quot;margin: 0px; margin-left: 8px;&quot;&gt;isRequired&amp;nbsp; &amp;nbsp;是否必输&lt;br&gt;&lt;/p&gt;&lt;p style=&quot;margin: 0px; margin-left: 8px;&quot;&gt;attrType&amp;nbsp; &amp;nbsp; &amp;nbsp; 属性类型（列表、文本、数字、日期）&lt;/p&gt;&lt;p style=&quot;margin: 0px; margin-left: 8px;&quot;&gt;isCustomAttrValue&amp;nbsp; &amp;nbsp; 属性值是否可以自定义&lt;br&gt;&lt;/p&gt;&lt;p style=&quot;margin: 0px; margin-left: 8px;&quot;&gt;isActive&amp;nbsp; &amp;nbsp; &amp;nbsp; &amp;nbsp;是否启用&lt;/p&gt;&lt;p style=&quot;margin: 0px; margin-left: 8px;&quot;&gt;isDeleted&amp;nbsp; &amp;nbsp; &amp;nbsp;是否删除&lt;/p&gt;" style="verticalAlign=top;align=left;overflow=fill;fontSize=12;fontFamily=Helvetica;html=1;strokeColor=#003366;shadow=1;fillColor=#D4E1F5;fontColor=#003366" vertex="1" parent="1">
          <mxGeometry x="780" y="50" width="290" height="210" as="geometry" />
        </mxCell>
        <mxCell id="GjRLE1qKXkt9nsyT0Dci-123" value="" style="endArrow=open;endSize=12;startArrow=diamondThin;startSize=14;startFill=0;edgeStyle=orthogonalEdgeStyle;exitX=0;exitY=0.5;exitDx=0;exitDy=0;" edge="1" parent="1" source="GjRLE1qKXkt9nsyT0Dci-122" target="GjRLE1qKXkt9nsyT0Dci-115">
          <mxGeometry x="439.3599999999999" y="-578.8399999999997" as="geometry">
            <mxPoint x="760" y="-145.00000000000045" as="sourcePoint" />
            <mxPoint x="910" y="-145.00000000000045" as="targetPoint" />
          </mxGeometry>
        </mxCell>
        <mxCell id="GjRLE1qKXkt9nsyT0Dci-124" value="0..n" style="resizable=0;align=left;verticalAlign=top;labelBackgroundColor=#ffffff;fontSize=10;strokeColor=#003366;shadow=1;fillColor=#D4E1F5;fontColor=#003366" connectable="0" vertex="1" parent="GjRLE1qKXkt9nsyT0Dci-123">
          <mxGeometry x="-1" relative="1" as="geometry">
            <mxPoint x="-40" as="offset" />
          </mxGeometry>
        </mxCell>
        <mxCell id="GjRLE1qKXkt9nsyT0Dci-125" value="1" style="resizable=0;align=right;verticalAlign=top;labelBackgroundColor=#ffffff;fontSize=10;strokeColor=#003366;shadow=1;fillColor=#D4E1F5;fontColor=#003366" connectable="0" vertex="1" parent="GjRLE1qKXkt9nsyT0Dci-123">
          <mxGeometry x="1" relative="1" as="geometry">
            <mxPoint x="20" as="offset" />
          </mxGeometry>
        </mxCell>
        <mxCell id="GjRLE1qKXkt9nsyT0Dci-126" value="&lt;p style=&quot;margin: 4px 0px 0px; text-align: center;&quot;&gt;&lt;b&gt;&lt;u&gt;Attribute&lt;/u&gt;&lt;/b&gt;&lt;br&gt;&lt;/p&gt;&lt;p style=&quot;margin: 4px 0px 0px; text-align: center;&quot;&gt;&lt;b&gt;&lt;u&gt;属性项&lt;/u&gt;&lt;/b&gt;&lt;br&gt;&lt;/p&gt;&lt;hr&gt;&lt;p style=&quot;margin: 0px; margin-left: 8px;&quot;&gt;systemId&amp;nbsp; &amp;nbsp; &amp;nbsp;属性系统id&lt;/p&gt;&lt;p style=&quot;margin: 0px; margin-left: 8px;&quot;&gt;code&amp;nbsp; &amp;nbsp; &amp;nbsp; &amp;nbsp; &amp;nbsp; &amp;nbsp; 编码&lt;/p&gt;&lt;p style=&quot;margin: 0px; margin-left: 8px;&quot;&gt;name&amp;nbsp; &amp;nbsp; &amp;nbsp; &amp;nbsp; &amp;nbsp; 名称&lt;br&gt;&lt;/p&gt;" style="verticalAlign=top;align=left;overflow=fill;fontSize=12;fontFamily=Helvetica;html=1;strokeColor=#003366;shadow=1;fillColor=#D4E1F5;fontColor=#003366" vertex="1" parent="1">
          <mxGeometry x="805" y="345" width="240" height="110" as="geometry" />
        </mxCell>
        <mxCell id="GjRLE1qKXkt9nsyT0Dci-127" value="Use" style="endArrow=open;endSize=12;dashed=1;html=1;rounded=0;sourcePerimeterSpacing=0;targetPerimeterSpacing=0;jumpSize=6;entryX=0.5;entryY=0;entryDx=0;entryDy=0;exitX=0.5;exitY=1;exitDx=0;exitDy=0;" edge="1" parent="1" source="GjRLE1qKXkt9nsyT0Dci-122" target="GjRLE1qKXkt9nsyT0Dci-126">
          <mxGeometry width="160" relative="1" as="geometry">
            <mxPoint x="1030" y="45" as="sourcePoint" />
            <mxPoint x="1190" y="45" as="targetPoint" />
          </mxGeometry>
        </mxCell>
        <mxCell id="GjRLE1qKXkt9nsyT0Dci-128" value="&lt;p style=&quot;margin: 4px 0px 0px; text-align: center;&quot;&gt;&lt;b&gt;&lt;u&gt;AttrValue&lt;/u&gt;&lt;/b&gt;&lt;br&gt;&lt;/p&gt;&lt;p style=&quot;margin: 4px 0px 0px; text-align: center;&quot;&gt;&lt;b&gt;&lt;u&gt;属性值&lt;/u&gt;&lt;/b&gt;&lt;br&gt;&lt;/p&gt;&lt;hr&gt;&lt;p style=&quot;margin: 0px; margin-left: 8px;&quot;&gt;systemId&amp;nbsp; &amp;nbsp; &amp;nbsp;属性系统id&lt;/p&gt;&lt;p style=&quot;margin: 0px; margin-left: 8px;&quot;&gt;attributeId&amp;nbsp; &amp;nbsp;属性项id&lt;br&gt;&lt;/p&gt;&lt;p style=&quot;margin: 0px; margin-left: 8px;&quot;&gt;code&amp;nbsp; &amp;nbsp; &amp;nbsp; &amp;nbsp; &amp;nbsp; &amp;nbsp; 编码&lt;/p&gt;&lt;p style=&quot;margin: 0px; margin-left: 8px;&quot;&gt;name&amp;nbsp; &amp;nbsp; &amp;nbsp; &amp;nbsp; &amp;nbsp; 名称&lt;br&gt;&lt;/p&gt;&lt;p style=&quot;margin: 0px; margin-left: 8px;&quot;&gt;isDefault&amp;nbsp; &amp;nbsp; &amp;nbsp;默认值（属性类型列表）&lt;/p&gt;" style="verticalAlign=top;align=left;overflow=fill;fontSize=12;fontFamily=Helvetica;html=1;strokeColor=#003366;shadow=1;fillColor=#D4E1F5;fontColor=#003366" vertex="1" parent="1">
          <mxGeometry x="825" y="545" width="200" height="130" as="geometry" />
        </mxCell>
        <mxCell id="GjRLE1qKXkt9nsyT0Dci-129" value="" style="endArrow=open;endSize=12;startArrow=diamondThin;startSize=14;startFill=0;edgeStyle=orthogonalEdgeStyle;exitX=0.5;exitY=0;exitDx=0;exitDy=0;entryX=0.5;entryY=1;entryDx=0;entryDy=0;" edge="1" parent="1" source="GjRLE1qKXkt9nsyT0Dci-128" target="GjRLE1qKXkt9nsyT0Dci-126">
          <mxGeometry x="449.3599999999999" y="-568.8399999999997" as="geometry">
            <mxPoint x="790" y="165" as="sourcePoint" />
            <mxPoint x="640" y="165" as="targetPoint" />
          </mxGeometry>
        </mxCell>
        <mxCell id="GjRLE1qKXkt9nsyT0Dci-130" value="0..n" style="resizable=0;align=left;verticalAlign=top;labelBackgroundColor=#ffffff;fontSize=10;strokeColor=#003366;shadow=1;fillColor=#D4E1F5;fontColor=#003366" connectable="0" vertex="1" parent="GjRLE1qKXkt9nsyT0Dci-129">
          <mxGeometry x="-1" relative="1" as="geometry">
            <mxPoint x="-29" y="-27" as="offset" />
          </mxGeometry>
        </mxCell>
        <mxCell id="GjRLE1qKXkt9nsyT0Dci-131" value="1" style="resizable=0;align=right;verticalAlign=top;labelBackgroundColor=#ffffff;fontSize=10;strokeColor=#003366;shadow=1;fillColor=#D4E1F5;fontColor=#003366" connectable="0" vertex="1" parent="GjRLE1qKXkt9nsyT0Dci-129">
          <mxGeometry x="1" relative="1" as="geometry">
            <mxPoint x="20" as="offset" />
          </mxGeometry>
        </mxCell>
      </root>
    </mxGraphModel>
  </diagram>
</mxfile>
